%TF.GenerationSoftware,KiCad,Pcbnew,9.0.7*%
%TF.CreationDate,2026-03-12T10:54:15+05:30*%
%TF.ProjectId,v0.4,76302e34-2e6b-4696-9361-645f70636258,rev?*%
%TF.SameCoordinates,Original*%
%TF.FileFunction,Copper,L1,Top*%
%TF.FilePolarity,Positive*%
%FSLAX46Y46*%
G04 Gerber Fmt 4.6, Leading zero omitted, Abs format (unit mm)*
G04 Created by KiCad (PCBNEW 9.0.7) date 2026-03-12 10:54:15*
%MOMM*%
%LPD*%
G01*
G04 APERTURE LIST*
G04 Aperture macros list*
%AMRoundRect*
0 Rectangle with rounded corners*
0 $1 Rounding radius*
0 $2 $3 $4 $5 $6 $7 $8 $9 X,Y pos of 4 corners*
0 Add a 4 corners polygon primitive as box body*
4,1,4,$2,$3,$4,$5,$6,$7,$8,$9,$2,$3,0*
0 Add four circle primitives for the rounded corners*
1,1,$1+$1,$2,$3*
1,1,$1+$1,$4,$5*
1,1,$1+$1,$6,$7*
1,1,$1+$1,$8,$9*
0 Add four rect primitives between the rounded corners*
20,1,$1+$1,$2,$3,$4,$5,0*
20,1,$1+$1,$4,$5,$6,$7,0*
20,1,$1+$1,$6,$7,$8,$9,0*
20,1,$1+$1,$8,$9,$2,$3,0*%
G04 Aperture macros list end*
%TA.AperFunction,SMDPad,CuDef*%
%ADD10RoundRect,0.250000X0.312500X0.625000X-0.312500X0.625000X-0.312500X-0.625000X0.312500X-0.625000X0*%
%TD*%
%TA.AperFunction,SMDPad,CuDef*%
%ADD11RoundRect,0.250000X0.375000X0.625000X-0.375000X0.625000X-0.375000X-0.625000X0.375000X-0.625000X0*%
%TD*%
%TA.AperFunction,ComponentPad*%
%ADD12C,1.600000*%
%TD*%
%TA.AperFunction,SMDPad,CuDef*%
%ADD13RoundRect,0.250000X-0.312500X-0.625000X0.312500X-0.625000X0.312500X0.625000X-0.312500X0.625000X0*%
%TD*%
%TA.AperFunction,SMDPad,CuDef*%
%ADD14RoundRect,0.150000X-0.587500X-0.150000X0.587500X-0.150000X0.587500X0.150000X-0.587500X0.150000X0*%
%TD*%
%TA.AperFunction,ComponentPad*%
%ADD15R,1.700000X1.700000*%
%TD*%
%TA.AperFunction,ComponentPad*%
%ADD16C,1.700000*%
%TD*%
%TA.AperFunction,Conductor*%
%ADD17C,0.500000*%
%TD*%
G04 APERTURE END LIST*
D10*
%TO.P,R2,2*%
%TO.N,Net-(Q1-C)*%
X170937500Y-102500000D03*
%TO.P,R2,1*%
%TO.N,Net-(D1-K)*%
X173862500Y-102500000D03*
%TD*%
D11*
%TO.P,D1,1,K*%
%TO.N,Net-(D1-K)*%
X173700000Y-99900000D03*
%TO.P,D1,2,A*%
%TO.N,Net-(D1-A)*%
X170900000Y-99900000D03*
%TD*%
D12*
%TO.P,R3,1*%
%TO.N,Net-(Q1-B)*%
X165200000Y-114300000D03*
%TO.P,R3,2*%
%TO.N,GND*%
X172800000Y-114300000D03*
%TD*%
D13*
%TO.P,R1,1*%
%TO.N,Net-(D1-A)*%
X165037500Y-105400000D03*
%TO.P,R1,2*%
%TO.N,Net-(Q1-B)*%
X167962500Y-105400000D03*
%TD*%
D14*
%TO.P,Q1,1,C*%
%TO.N,Net-(Q1-C)*%
X171562500Y-105750000D03*
%TO.P,Q1,2,B*%
%TO.N,Net-(Q1-B)*%
X171562500Y-107650000D03*
%TO.P,Q1,3,E*%
%TO.N,GND*%
X173437500Y-106700000D03*
%TD*%
D15*
%TO.P,J1,1,Pin_1*%
%TO.N,Net-(D1-A)*%
X165975000Y-99200000D03*
D16*
%TO.P,J1,2,Pin_2*%
%TO.N,GND*%
X163435000Y-99200000D03*
%TD*%
D17*
%TO.N,Net-(Q1-C)*%
X171562500Y-103125000D02*
X170937500Y-102500000D01*
X171562500Y-105750000D02*
X171562500Y-103125000D01*
%TO.N,Net-(D1-K)*%
X173862500Y-100062500D02*
X173700000Y-99900000D01*
X173862500Y-102500000D02*
X173862500Y-100062500D01*
%TO.N,Net-(D1-A)*%
X168600000Y-99900000D02*
X170900000Y-99900000D01*
X167900000Y-99200000D02*
X168600000Y-99900000D01*
%TO.N,Net-(Q1-B)*%
X165200000Y-114300000D02*
X165200000Y-111650000D01*
X171562500Y-107650000D02*
X169200000Y-107650000D01*
X168162500Y-105762500D02*
X168162500Y-104700000D01*
X169300000Y-106900000D02*
X168162500Y-105762500D01*
X165200000Y-111650000D02*
X169200000Y-107650000D01*
X169200000Y-107650000D02*
X169300000Y-107550000D01*
X169300000Y-107550000D02*
X169300000Y-106900000D01*
%TO.N,Net-(D1-A)*%
X167900000Y-99200000D02*
X165975000Y-99200000D01*
X165975000Y-101725000D02*
X165237500Y-102462500D01*
X165975000Y-99200000D02*
X165975000Y-101725000D01*
X165237500Y-102462500D02*
X165237500Y-104700000D01*
%TD*%
%TA.AperFunction,Conductor*%
%TO.N,GND*%
G36*
X175442539Y-97120185D02*
G01*
X175488294Y-97172989D01*
X175499500Y-97224500D01*
X175499500Y-119775500D01*
X175479815Y-119842539D01*
X175427011Y-119888294D01*
X175375500Y-119899500D01*
X161524500Y-119899500D01*
X161457461Y-119879815D01*
X161411706Y-119827011D01*
X161400500Y-119775500D01*
X161400500Y-114197648D01*
X163899500Y-114197648D01*
X163899500Y-114402351D01*
X163931522Y-114604534D01*
X163994781Y-114799223D01*
X164087715Y-114981613D01*
X164208028Y-115147213D01*
X164352786Y-115291971D01*
X164507749Y-115404556D01*
X164518390Y-115412287D01*
X164634607Y-115471503D01*
X164700776Y-115505218D01*
X164700778Y-115505218D01*
X164700781Y-115505220D01*
X164805137Y-115539127D01*
X164895465Y-115568477D01*
X164996557Y-115584488D01*
X165097648Y-115600500D01*
X165097649Y-115600500D01*
X165302351Y-115600500D01*
X165302352Y-115600500D01*
X165504534Y-115568477D01*
X165699219Y-115505220D01*
X165881610Y-115412287D01*
X165974590Y-115344732D01*
X166047213Y-115291971D01*
X166047215Y-115291968D01*
X166047219Y-115291966D01*
X166191966Y-115147219D01*
X166191968Y-115147215D01*
X166191971Y-115147213D01*
X166244732Y-115074590D01*
X166312287Y-114981610D01*
X166405220Y-114799219D01*
X166468477Y-114604534D01*
X166500500Y-114402352D01*
X166500500Y-114197648D01*
X166468477Y-113995466D01*
X166405220Y-113800781D01*
X166405218Y-113800778D01*
X166405218Y-113800776D01*
X166371503Y-113734607D01*
X166312287Y-113618390D01*
X166304556Y-113607749D01*
X166191971Y-113452786D01*
X166047217Y-113308032D01*
X166047212Y-113308028D01*
X166001615Y-113274900D01*
X165958949Y-113219571D01*
X165950500Y-113174582D01*
X165950500Y-112012229D01*
X165970185Y-111945190D01*
X165986819Y-111924548D01*
X169474548Y-108436819D01*
X169535871Y-108403334D01*
X169562229Y-108400500D01*
X170692672Y-108400500D01*
X170727267Y-108405424D01*
X170872426Y-108447597D01*
X170872429Y-108447597D01*
X170872431Y-108447598D01*
X170909306Y-108450500D01*
X170909314Y-108450500D01*
X172215686Y-108450500D01*
X172215694Y-108450500D01*
X172252569Y-108447598D01*
X172252571Y-108447597D01*
X172252573Y-108447597D01*
X172294191Y-108435505D01*
X172410398Y-108401744D01*
X172551865Y-108318081D01*
X172668081Y-108201865D01*
X172751744Y-108060398D01*
X172797598Y-107902569D01*
X172800500Y-107865694D01*
X172800500Y-107434306D01*
X172797598Y-107397431D01*
X172751744Y-107239602D01*
X172668081Y-107098135D01*
X172668079Y-107098133D01*
X172668076Y-107098129D01*
X172551870Y-106981923D01*
X172551862Y-106981917D01*
X172410396Y-106898255D01*
X172410393Y-106898254D01*
X172252573Y-106852402D01*
X172252567Y-106852401D01*
X172215701Y-106849500D01*
X172215694Y-106849500D01*
X170909306Y-106849500D01*
X170909298Y-106849500D01*
X170872432Y-106852401D01*
X170872426Y-106852402D01*
X170727267Y-106894576D01*
X170692672Y-106899500D01*
X170166868Y-106899500D01*
X170099829Y-106879815D01*
X170054074Y-106827011D01*
X170045251Y-106799692D01*
X170021659Y-106681092D01*
X170021658Y-106681091D01*
X170021658Y-106681087D01*
X169965084Y-106544505D01*
X169924762Y-106484158D01*
X169924762Y-106484157D01*
X169882950Y-106421581D01*
X169061818Y-105600449D01*
X169028333Y-105539126D01*
X169025499Y-105512768D01*
X169025499Y-104724998D01*
X169025498Y-104724981D01*
X169014999Y-104622203D01*
X169014998Y-104622200D01*
X168959814Y-104455666D01*
X168867712Y-104306344D01*
X168743656Y-104182288D01*
X168743652Y-104182285D01*
X168657190Y-104128954D01*
X168643625Y-104119271D01*
X168640921Y-104117052D01*
X168518001Y-104034919D01*
X168517988Y-104034912D01*
X168381417Y-103978343D01*
X168381407Y-103978340D01*
X168236420Y-103949500D01*
X168236418Y-103949500D01*
X168088582Y-103949500D01*
X168088580Y-103949500D01*
X167943593Y-103978340D01*
X167943590Y-103978341D01*
X167943588Y-103978341D01*
X167943587Y-103978342D01*
X167854933Y-104015062D01*
X167807486Y-104024500D01*
X167599999Y-104024500D01*
X167599980Y-104024501D01*
X167497203Y-104035000D01*
X167497200Y-104035001D01*
X167330668Y-104090185D01*
X167330663Y-104090187D01*
X167181342Y-104182289D01*
X167057289Y-104306342D01*
X166965187Y-104455663D01*
X166965186Y-104455666D01*
X166910001Y-104622203D01*
X166910001Y-104622204D01*
X166910000Y-104622204D01*
X166899500Y-104724983D01*
X166899500Y-106075001D01*
X166899501Y-106075018D01*
X166910000Y-106177796D01*
X166910001Y-106177799D01*
X166951112Y-106301862D01*
X166965186Y-106344334D01*
X167057288Y-106493656D01*
X167181344Y-106617712D01*
X167330666Y-106709814D01*
X167497203Y-106764999D01*
X167599991Y-106775500D01*
X168062769Y-106775499D01*
X168129808Y-106795183D01*
X168150450Y-106811818D01*
X168475950Y-107137318D01*
X168509435Y-107198641D01*
X168504451Y-107268333D01*
X168475950Y-107312680D01*
X164617050Y-111171580D01*
X164617044Y-111171588D01*
X164567812Y-111245268D01*
X164567813Y-111245269D01*
X164534921Y-111294496D01*
X164534914Y-111294508D01*
X164478342Y-111431086D01*
X164478340Y-111431092D01*
X164449500Y-111576079D01*
X164449500Y-113174582D01*
X164429815Y-113241621D01*
X164398385Y-113274900D01*
X164352787Y-113308028D01*
X164352782Y-113308032D01*
X164208028Y-113452786D01*
X164087715Y-113618386D01*
X163994781Y-113800776D01*
X163931522Y-113995465D01*
X163899500Y-114197648D01*
X161400500Y-114197648D01*
X161400500Y-104724983D01*
X163974500Y-104724983D01*
X163974500Y-106075001D01*
X163974501Y-106075018D01*
X163985000Y-106177796D01*
X163985001Y-106177799D01*
X164026112Y-106301862D01*
X164040186Y-106344334D01*
X164132288Y-106493656D01*
X164256344Y-106617712D01*
X164405666Y-106709814D01*
X164572203Y-106764999D01*
X164674991Y-106775500D01*
X165400008Y-106775499D01*
X165400016Y-106775498D01*
X165400019Y-106775498D01*
X165456302Y-106769748D01*
X165502797Y-106764999D01*
X165669334Y-106709814D01*
X165818656Y-106617712D01*
X165942712Y-106493656D01*
X166034814Y-106344334D01*
X166089999Y-106177797D01*
X166100500Y-106075009D01*
X166100499Y-104724992D01*
X166089999Y-104622203D01*
X166034814Y-104455666D01*
X166006459Y-104409695D01*
X165988000Y-104344601D01*
X165988000Y-102824729D01*
X166007685Y-102757690D01*
X166024319Y-102737048D01*
X166557950Y-102203417D01*
X166557952Y-102203415D01*
X166622370Y-102107006D01*
X166640084Y-102080495D01*
X166680019Y-101984084D01*
X166696659Y-101943912D01*
X166725500Y-101798917D01*
X166725500Y-101651082D01*
X166725500Y-100674499D01*
X166745185Y-100607460D01*
X166797989Y-100561705D01*
X166849500Y-100550499D01*
X166872871Y-100550499D01*
X166872872Y-100550499D01*
X166932483Y-100544091D01*
X167067331Y-100493796D01*
X167182546Y-100407546D01*
X167268796Y-100292331D01*
X167319091Y-100157483D01*
X167325500Y-100097873D01*
X167325500Y-100074500D01*
X167328050Y-100065814D01*
X167326762Y-100056853D01*
X167337740Y-100032812D01*
X167345185Y-100007461D01*
X167352025Y-100001533D01*
X167355787Y-99993297D01*
X167378021Y-99979007D01*
X167397989Y-99961706D01*
X167408503Y-99959418D01*
X167414565Y-99955523D01*
X167449500Y-99950500D01*
X167537770Y-99950500D01*
X167604809Y-99970185D01*
X167625451Y-99986819D01*
X168017048Y-100378415D01*
X168017049Y-100378416D01*
X168121584Y-100482951D01*
X168121585Y-100482952D01*
X168244498Y-100565080D01*
X168244511Y-100565087D01*
X168381082Y-100621656D01*
X168381087Y-100621658D01*
X168381091Y-100621658D01*
X168381092Y-100621659D01*
X168526079Y-100650500D01*
X168526082Y-100650500D01*
X169686415Y-100650500D01*
X169753454Y-100670185D01*
X169799209Y-100722989D01*
X169804118Y-100735489D01*
X169840186Y-100844334D01*
X169932288Y-100993656D01*
X170056344Y-101117712D01*
X170086510Y-101136318D01*
X170133233Y-101188263D01*
X170144457Y-101257225D01*
X170116615Y-101321308D01*
X170109095Y-101329537D01*
X170032287Y-101406345D01*
X169940187Y-101555663D01*
X169940186Y-101555666D01*
X169885001Y-101722203D01*
X169885001Y-101722204D01*
X169885000Y-101722204D01*
X169874500Y-101824983D01*
X169874500Y-103175001D01*
X169874501Y-103175018D01*
X169885000Y-103277796D01*
X169885001Y-103277799D01*
X169940185Y-103444331D01*
X169940186Y-103444334D01*
X170032288Y-103593656D01*
X170156344Y-103717712D01*
X170305666Y-103809814D01*
X170472203Y-103864999D01*
X170574991Y-103875500D01*
X170688000Y-103875499D01*
X170755039Y-103895183D01*
X170800794Y-103947987D01*
X170812000Y-103999499D01*
X170812000Y-104876856D01*
X170792315Y-104943895D01*
X170739511Y-104989650D01*
X170722601Y-104995931D01*
X170714606Y-104998253D01*
X170714602Y-104998255D01*
X170573137Y-105081917D01*
X170573129Y-105081923D01*
X170456923Y-105198129D01*
X170456917Y-105198137D01*
X170373255Y-105339603D01*
X170373254Y-105339606D01*
X170327402Y-105497426D01*
X170327401Y-105497432D01*
X170324500Y-105534298D01*
X170324500Y-105965701D01*
X170327401Y-106002567D01*
X170327402Y-106002573D01*
X170373254Y-106160393D01*
X170373255Y-106160396D01*
X170456917Y-106301862D01*
X170456923Y-106301870D01*
X170573129Y-106418076D01*
X170573133Y-106418079D01*
X170573135Y-106418081D01*
X170714602Y-106501744D01*
X170756224Y-106513836D01*
X170872426Y-106547597D01*
X170872429Y-106547597D01*
X170872431Y-106547598D01*
X170909306Y-106550500D01*
X170909314Y-106550500D01*
X172215686Y-106550500D01*
X172215694Y-106550500D01*
X172252569Y-106547598D01*
X172252571Y-106547597D01*
X172252573Y-106547597D01*
X172294191Y-106535505D01*
X172410398Y-106501744D01*
X172551865Y-106418081D01*
X172668081Y-106301865D01*
X172751744Y-106160398D01*
X172797598Y-106002569D01*
X172800500Y-105965694D01*
X172800500Y-105534306D01*
X172797598Y-105497431D01*
X172751744Y-105339602D01*
X172668081Y-105198135D01*
X172668079Y-105198133D01*
X172668076Y-105198129D01*
X172551870Y-105081923D01*
X172551862Y-105081917D01*
X172410397Y-104998255D01*
X172410393Y-104998253D01*
X172402399Y-104995931D01*
X172343515Y-104958321D01*
X172314312Y-104894847D01*
X172313000Y-104876856D01*
X172313000Y-103051079D01*
X172284159Y-102906092D01*
X172284158Y-102906091D01*
X172284158Y-102906087D01*
X172284156Y-102906082D01*
X172227587Y-102769511D01*
X172227580Y-102769498D01*
X172145452Y-102646585D01*
X172145451Y-102646584D01*
X172040916Y-102542049D01*
X172036818Y-102537951D01*
X172003333Y-102476628D01*
X172000499Y-102450270D01*
X172000499Y-101824998D01*
X172000498Y-101824981D01*
X171989999Y-101722203D01*
X171989998Y-101722200D01*
X171966432Y-101651082D01*
X171934814Y-101555666D01*
X171842712Y-101406344D01*
X171736315Y-101299947D01*
X171702830Y-101238624D01*
X171707814Y-101168932D01*
X171740196Y-101124466D01*
X171738549Y-101122819D01*
X171761638Y-101099730D01*
X171867712Y-100993656D01*
X171959814Y-100844334D01*
X172014999Y-100677797D01*
X172025500Y-100575009D01*
X172025499Y-99224992D01*
X172025498Y-99224983D01*
X172574500Y-99224983D01*
X172574500Y-100575001D01*
X172574501Y-100575018D01*
X172585000Y-100677796D01*
X172585001Y-100677799D01*
X172640185Y-100844331D01*
X172640186Y-100844334D01*
X172732288Y-100993656D01*
X172856344Y-101117712D01*
X172963823Y-101184005D01*
X173010547Y-101235951D01*
X173021770Y-101304914D01*
X172993927Y-101368996D01*
X172986409Y-101377223D01*
X172957287Y-101406344D01*
X172865187Y-101555663D01*
X172865186Y-101555666D01*
X172810001Y-101722203D01*
X172810001Y-101722204D01*
X172810000Y-101722204D01*
X172799500Y-101824983D01*
X172799500Y-103175001D01*
X172799501Y-103175018D01*
X172810000Y-103277796D01*
X172810001Y-103277799D01*
X172865185Y-103444331D01*
X172865186Y-103444334D01*
X172957288Y-103593656D01*
X173081344Y-103717712D01*
X173230666Y-103809814D01*
X173397203Y-103864999D01*
X173499991Y-103875500D01*
X174225008Y-103875499D01*
X174225016Y-103875498D01*
X174225019Y-103875498D01*
X174281302Y-103869748D01*
X174327797Y-103864999D01*
X174494334Y-103809814D01*
X174643656Y-103717712D01*
X174767712Y-103593656D01*
X174859814Y-103444334D01*
X174914999Y-103277797D01*
X174925500Y-103175009D01*
X174925499Y-101824992D01*
X174922835Y-101798917D01*
X174914999Y-101722203D01*
X174914998Y-101722200D01*
X174891432Y-101651082D01*
X174859814Y-101555666D01*
X174767712Y-101406344D01*
X174649319Y-101287951D01*
X174634615Y-101261023D01*
X174618023Y-101235205D01*
X174617131Y-101229004D01*
X174615834Y-101226628D01*
X174613000Y-101200270D01*
X174613000Y-101099730D01*
X174632685Y-101032691D01*
X174649319Y-101012049D01*
X174667712Y-100993656D01*
X174759814Y-100844334D01*
X174814999Y-100677797D01*
X174825500Y-100575009D01*
X174825499Y-99224992D01*
X174814999Y-99122203D01*
X174759814Y-98955666D01*
X174667712Y-98806344D01*
X174543656Y-98682288D01*
X174437886Y-98617049D01*
X174394336Y-98590187D01*
X174394331Y-98590185D01*
X174392862Y-98589698D01*
X174227797Y-98535001D01*
X174227795Y-98535000D01*
X174125010Y-98524500D01*
X173274998Y-98524500D01*
X173274980Y-98524501D01*
X173172203Y-98535000D01*
X173172200Y-98535001D01*
X173005668Y-98590185D01*
X173005663Y-98590187D01*
X172856342Y-98682289D01*
X172732289Y-98806342D01*
X172640187Y-98955663D01*
X172640186Y-98955666D01*
X172585001Y-99122203D01*
X172585001Y-99122204D01*
X172585000Y-99122204D01*
X172574500Y-99224983D01*
X172025498Y-99224983D01*
X172014999Y-99122203D01*
X171959814Y-98955666D01*
X171867712Y-98806344D01*
X171743656Y-98682288D01*
X171637886Y-98617049D01*
X171594336Y-98590187D01*
X171594331Y-98590185D01*
X171592862Y-98589698D01*
X171427797Y-98535001D01*
X171427795Y-98535000D01*
X171325010Y-98524500D01*
X170474998Y-98524500D01*
X170474980Y-98524501D01*
X170372203Y-98535000D01*
X170372200Y-98535001D01*
X170205668Y-98590185D01*
X170205663Y-98590187D01*
X170056342Y-98682289D01*
X169932289Y-98806342D01*
X169840187Y-98955663D01*
X169840185Y-98955668D01*
X169804121Y-99064504D01*
X169764348Y-99121949D01*
X169699833Y-99148772D01*
X169686415Y-99149500D01*
X168962229Y-99149500D01*
X168895190Y-99129815D01*
X168874548Y-99113181D01*
X168378418Y-98617049D01*
X168378416Y-98617047D01*
X168329092Y-98584091D01*
X168296355Y-98562218D01*
X168255495Y-98534916D01*
X168255494Y-98534915D01*
X168255492Y-98534914D01*
X168255490Y-98534913D01*
X168118917Y-98478343D01*
X168118907Y-98478340D01*
X167973920Y-98449500D01*
X167973918Y-98449500D01*
X167449499Y-98449500D01*
X167382460Y-98429815D01*
X167336705Y-98377011D01*
X167325499Y-98325500D01*
X167325499Y-98302129D01*
X167325498Y-98302123D01*
X167325497Y-98302116D01*
X167319091Y-98242517D01*
X167268796Y-98107669D01*
X167268795Y-98107668D01*
X167268793Y-98107664D01*
X167182547Y-97992455D01*
X167182544Y-97992452D01*
X167067335Y-97906206D01*
X167067328Y-97906202D01*
X166932482Y-97855908D01*
X166932483Y-97855908D01*
X166872883Y-97849501D01*
X166872881Y-97849500D01*
X166872873Y-97849500D01*
X166872864Y-97849500D01*
X165077129Y-97849500D01*
X165077123Y-97849501D01*
X165017516Y-97855908D01*
X164882671Y-97906202D01*
X164882664Y-97906206D01*
X164767455Y-97992452D01*
X164767452Y-97992455D01*
X164681206Y-98107664D01*
X164681202Y-98107671D01*
X164630908Y-98242517D01*
X164624501Y-98302116D01*
X164624501Y-98302123D01*
X164624500Y-98302135D01*
X164624500Y-100097870D01*
X164624501Y-100097876D01*
X164630908Y-100157483D01*
X164681202Y-100292328D01*
X164681206Y-100292335D01*
X164767452Y-100407544D01*
X164767455Y-100407547D01*
X164882664Y-100493793D01*
X164882671Y-100493797D01*
X164927618Y-100510561D01*
X165017517Y-100544091D01*
X165077127Y-100550500D01*
X165100497Y-100550499D01*
X165167536Y-100570181D01*
X165213292Y-100622983D01*
X165224500Y-100674499D01*
X165224500Y-101362770D01*
X165204815Y-101429809D01*
X165188181Y-101450451D01*
X164654547Y-101984084D01*
X164654543Y-101984089D01*
X164629492Y-102021583D01*
X164629492Y-102021584D01*
X164572413Y-102107008D01*
X164515843Y-102243582D01*
X164515840Y-102243592D01*
X164487000Y-102388579D01*
X164487000Y-103973693D01*
X164467315Y-104040732D01*
X164414511Y-104086487D01*
X164408721Y-104088761D01*
X164405669Y-104090184D01*
X164256342Y-104182289D01*
X164132289Y-104306342D01*
X164040187Y-104455663D01*
X164040186Y-104455666D01*
X163985001Y-104622203D01*
X163985001Y-104622204D01*
X163985000Y-104622204D01*
X163974500Y-104724983D01*
X161400500Y-104724983D01*
X161400500Y-97224500D01*
X161420185Y-97157461D01*
X161472989Y-97111706D01*
X161524500Y-97100500D01*
X175375500Y-97100500D01*
X175442539Y-97120185D01*
G37*
%TD.AperFunction*%
%TD*%
M02*
