%TF.GenerationSoftware,KiCad,Pcbnew,9.0.7*%
%TF.CreationDate,2026-03-12T10:54:19+05:30*%
%TF.ProjectId,v0.4,76302e34-2e6b-4696-9361-645f70636258,rev?*%
%TF.SameCoordinates,Original*%
%TF.FileFunction,Drillmap*%
%TF.FilePolarity,Positive*%
%FSLAX45Y45*%
G04 Gerber Fmt 4.5, Leading zero omitted, Abs format (unit mm)*
G04 Created by KiCad (PCBNEW 9.0.7) date 2026-03-12 10:54:19*
%MOMM*%
%LPD*%
G01*
G04 APERTURE LIST*
%ADD10C,0.050000*%
%ADD11C,0.200000*%
%ADD12C,0.100000*%
G04 APERTURE END LIST*
D10*
X16090000Y-9660000D02*
X17600000Y-9660000D01*
X17600000Y-12040000D01*
X16090000Y-12040000D01*
X16090000Y-9660000D01*
D11*
D12*
X16480000Y-11390000D02*
X16560000Y-11470000D01*
X16560000Y-11390000D02*
X16480000Y-11470000D01*
X17240000Y-11390000D02*
X17320000Y-11470000D01*
X17320000Y-11390000D02*
X17240000Y-11470000D01*
X16393500Y-9920000D02*
G75*
G02*
X16293500Y-9920000I-50000J0D01*
G01*
X16293500Y-9920000D02*
G75*
G02*
X16393500Y-9920000I50000J0D01*
G01*
X16647500Y-9920000D02*
G75*
G02*
X16547500Y-9920000I-50000J0D01*
G01*
X16547500Y-9920000D02*
G75*
G02*
X16647500Y-9920000I50000J0D01*
G01*
D11*
X16348277Y-12353984D02*
X16348277Y-12153984D01*
X16348277Y-12153984D02*
X16395896Y-12153984D01*
X16395896Y-12153984D02*
X16424467Y-12163508D01*
X16424467Y-12163508D02*
X16443515Y-12182555D01*
X16443515Y-12182555D02*
X16453039Y-12201603D01*
X16453039Y-12201603D02*
X16462562Y-12239698D01*
X16462562Y-12239698D02*
X16462562Y-12268269D01*
X16462562Y-12268269D02*
X16453039Y-12306365D01*
X16453039Y-12306365D02*
X16443515Y-12325412D01*
X16443515Y-12325412D02*
X16424467Y-12344460D01*
X16424467Y-12344460D02*
X16395896Y-12353984D01*
X16395896Y-12353984D02*
X16348277Y-12353984D01*
X16548277Y-12353984D02*
X16548277Y-12220650D01*
X16548277Y-12258746D02*
X16557801Y-12239698D01*
X16557801Y-12239698D02*
X16567324Y-12230174D01*
X16567324Y-12230174D02*
X16586372Y-12220650D01*
X16586372Y-12220650D02*
X16605420Y-12220650D01*
X16672086Y-12353984D02*
X16672086Y-12220650D01*
X16672086Y-12153984D02*
X16662562Y-12163508D01*
X16662562Y-12163508D02*
X16672086Y-12173031D01*
X16672086Y-12173031D02*
X16681610Y-12163508D01*
X16681610Y-12163508D02*
X16672086Y-12153984D01*
X16672086Y-12153984D02*
X16672086Y-12173031D01*
X16795896Y-12353984D02*
X16776848Y-12344460D01*
X16776848Y-12344460D02*
X16767324Y-12325412D01*
X16767324Y-12325412D02*
X16767324Y-12153984D01*
X16900658Y-12353984D02*
X16881610Y-12344460D01*
X16881610Y-12344460D02*
X16872086Y-12325412D01*
X16872086Y-12325412D02*
X16872086Y-12153984D01*
X17129229Y-12353984D02*
X17129229Y-12153984D01*
X17129229Y-12153984D02*
X17195896Y-12296841D01*
X17195896Y-12296841D02*
X17262563Y-12153984D01*
X17262563Y-12153984D02*
X17262563Y-12353984D01*
X17443515Y-12353984D02*
X17443515Y-12249222D01*
X17443515Y-12249222D02*
X17433991Y-12230174D01*
X17433991Y-12230174D02*
X17414944Y-12220650D01*
X17414944Y-12220650D02*
X17376848Y-12220650D01*
X17376848Y-12220650D02*
X17357801Y-12230174D01*
X17443515Y-12344460D02*
X17424467Y-12353984D01*
X17424467Y-12353984D02*
X17376848Y-12353984D01*
X17376848Y-12353984D02*
X17357801Y-12344460D01*
X17357801Y-12344460D02*
X17348277Y-12325412D01*
X17348277Y-12325412D02*
X17348277Y-12306365D01*
X17348277Y-12306365D02*
X17357801Y-12287317D01*
X17357801Y-12287317D02*
X17376848Y-12277793D01*
X17376848Y-12277793D02*
X17424467Y-12277793D01*
X17424467Y-12277793D02*
X17443515Y-12268269D01*
X17538753Y-12220650D02*
X17538753Y-12420650D01*
X17538753Y-12230174D02*
X17557801Y-12220650D01*
X17557801Y-12220650D02*
X17595896Y-12220650D01*
X17595896Y-12220650D02*
X17614944Y-12230174D01*
X17614944Y-12230174D02*
X17624467Y-12239698D01*
X17624467Y-12239698D02*
X17633991Y-12258746D01*
X17633991Y-12258746D02*
X17633991Y-12315888D01*
X17633991Y-12315888D02*
X17624467Y-12334936D01*
X17624467Y-12334936D02*
X17614944Y-12344460D01*
X17614944Y-12344460D02*
X17595896Y-12353984D01*
X17595896Y-12353984D02*
X17557801Y-12353984D01*
X17557801Y-12353984D02*
X17538753Y-12344460D01*
X17719705Y-12334936D02*
X17729229Y-12344460D01*
X17729229Y-12344460D02*
X17719705Y-12353984D01*
X17719705Y-12353984D02*
X17710182Y-12344460D01*
X17710182Y-12344460D02*
X17719705Y-12334936D01*
X17719705Y-12334936D02*
X17719705Y-12353984D01*
X17719705Y-12230174D02*
X17729229Y-12239698D01*
X17729229Y-12239698D02*
X17719705Y-12249222D01*
X17719705Y-12249222D02*
X17710182Y-12239698D01*
X17710182Y-12239698D02*
X17719705Y-12230174D01*
X17719705Y-12230174D02*
X17719705Y-12249222D01*
D12*
X16007500Y-12642500D02*
X16087500Y-12722500D01*
X16087500Y-12642500D02*
X16007500Y-12722500D01*
D11*
X16386372Y-12573984D02*
X16405420Y-12573984D01*
X16405420Y-12573984D02*
X16424467Y-12583508D01*
X16424467Y-12583508D02*
X16433991Y-12593031D01*
X16433991Y-12593031D02*
X16443515Y-12612079D01*
X16443515Y-12612079D02*
X16453039Y-12650174D01*
X16453039Y-12650174D02*
X16453039Y-12697793D01*
X16453039Y-12697793D02*
X16443515Y-12735888D01*
X16443515Y-12735888D02*
X16433991Y-12754936D01*
X16433991Y-12754936D02*
X16424467Y-12764460D01*
X16424467Y-12764460D02*
X16405420Y-12773984D01*
X16405420Y-12773984D02*
X16386372Y-12773984D01*
X16386372Y-12773984D02*
X16367324Y-12764460D01*
X16367324Y-12764460D02*
X16357801Y-12754936D01*
X16357801Y-12754936D02*
X16348277Y-12735888D01*
X16348277Y-12735888D02*
X16338753Y-12697793D01*
X16338753Y-12697793D02*
X16338753Y-12650174D01*
X16338753Y-12650174D02*
X16348277Y-12612079D01*
X16348277Y-12612079D02*
X16357801Y-12593031D01*
X16357801Y-12593031D02*
X16367324Y-12583508D01*
X16367324Y-12583508D02*
X16386372Y-12573984D01*
X16538753Y-12754936D02*
X16548277Y-12764460D01*
X16548277Y-12764460D02*
X16538753Y-12773984D01*
X16538753Y-12773984D02*
X16529229Y-12764460D01*
X16529229Y-12764460D02*
X16538753Y-12754936D01*
X16538753Y-12754936D02*
X16538753Y-12773984D01*
X16662562Y-12659698D02*
X16643515Y-12650174D01*
X16643515Y-12650174D02*
X16633991Y-12640650D01*
X16633991Y-12640650D02*
X16624467Y-12621603D01*
X16624467Y-12621603D02*
X16624467Y-12612079D01*
X16624467Y-12612079D02*
X16633991Y-12593031D01*
X16633991Y-12593031D02*
X16643515Y-12583508D01*
X16643515Y-12583508D02*
X16662562Y-12573984D01*
X16662562Y-12573984D02*
X16700658Y-12573984D01*
X16700658Y-12573984D02*
X16719705Y-12583508D01*
X16719705Y-12583508D02*
X16729229Y-12593031D01*
X16729229Y-12593031D02*
X16738753Y-12612079D01*
X16738753Y-12612079D02*
X16738753Y-12621603D01*
X16738753Y-12621603D02*
X16729229Y-12640650D01*
X16729229Y-12640650D02*
X16719705Y-12650174D01*
X16719705Y-12650174D02*
X16700658Y-12659698D01*
X16700658Y-12659698D02*
X16662562Y-12659698D01*
X16662562Y-12659698D02*
X16643515Y-12669222D01*
X16643515Y-12669222D02*
X16633991Y-12678746D01*
X16633991Y-12678746D02*
X16624467Y-12697793D01*
X16624467Y-12697793D02*
X16624467Y-12735888D01*
X16624467Y-12735888D02*
X16633991Y-12754936D01*
X16633991Y-12754936D02*
X16643515Y-12764460D01*
X16643515Y-12764460D02*
X16662562Y-12773984D01*
X16662562Y-12773984D02*
X16700658Y-12773984D01*
X16700658Y-12773984D02*
X16719705Y-12764460D01*
X16719705Y-12764460D02*
X16729229Y-12754936D01*
X16729229Y-12754936D02*
X16738753Y-12735888D01*
X16738753Y-12735888D02*
X16738753Y-12697793D01*
X16738753Y-12697793D02*
X16729229Y-12678746D01*
X16729229Y-12678746D02*
X16719705Y-12669222D01*
X16719705Y-12669222D02*
X16700658Y-12659698D01*
X16862563Y-12573984D02*
X16881610Y-12573984D01*
X16881610Y-12573984D02*
X16900658Y-12583508D01*
X16900658Y-12583508D02*
X16910182Y-12593031D01*
X16910182Y-12593031D02*
X16919705Y-12612079D01*
X16919705Y-12612079D02*
X16929229Y-12650174D01*
X16929229Y-12650174D02*
X16929229Y-12697793D01*
X16929229Y-12697793D02*
X16919705Y-12735888D01*
X16919705Y-12735888D02*
X16910182Y-12754936D01*
X16910182Y-12754936D02*
X16900658Y-12764460D01*
X16900658Y-12764460D02*
X16881610Y-12773984D01*
X16881610Y-12773984D02*
X16862563Y-12773984D01*
X16862563Y-12773984D02*
X16843515Y-12764460D01*
X16843515Y-12764460D02*
X16833991Y-12754936D01*
X16833991Y-12754936D02*
X16824467Y-12735888D01*
X16824467Y-12735888D02*
X16814944Y-12697793D01*
X16814944Y-12697793D02*
X16814944Y-12650174D01*
X16814944Y-12650174D02*
X16824467Y-12612079D01*
X16824467Y-12612079D02*
X16833991Y-12593031D01*
X16833991Y-12593031D02*
X16843515Y-12583508D01*
X16843515Y-12583508D02*
X16862563Y-12573984D01*
X17053039Y-12573984D02*
X17072086Y-12573984D01*
X17072086Y-12573984D02*
X17091134Y-12583508D01*
X17091134Y-12583508D02*
X17100658Y-12593031D01*
X17100658Y-12593031D02*
X17110182Y-12612079D01*
X17110182Y-12612079D02*
X17119705Y-12650174D01*
X17119705Y-12650174D02*
X17119705Y-12697793D01*
X17119705Y-12697793D02*
X17110182Y-12735888D01*
X17110182Y-12735888D02*
X17100658Y-12754936D01*
X17100658Y-12754936D02*
X17091134Y-12764460D01*
X17091134Y-12764460D02*
X17072086Y-12773984D01*
X17072086Y-12773984D02*
X17053039Y-12773984D01*
X17053039Y-12773984D02*
X17033991Y-12764460D01*
X17033991Y-12764460D02*
X17024467Y-12754936D01*
X17024467Y-12754936D02*
X17014944Y-12735888D01*
X17014944Y-12735888D02*
X17005420Y-12697793D01*
X17005420Y-12697793D02*
X17005420Y-12650174D01*
X17005420Y-12650174D02*
X17014944Y-12612079D01*
X17014944Y-12612079D02*
X17024467Y-12593031D01*
X17024467Y-12593031D02*
X17033991Y-12583508D01*
X17033991Y-12583508D02*
X17053039Y-12573984D01*
X17205420Y-12773984D02*
X17205420Y-12640650D01*
X17205420Y-12659698D02*
X17214944Y-12650174D01*
X17214944Y-12650174D02*
X17233991Y-12640650D01*
X17233991Y-12640650D02*
X17262563Y-12640650D01*
X17262563Y-12640650D02*
X17281610Y-12650174D01*
X17281610Y-12650174D02*
X17291134Y-12669222D01*
X17291134Y-12669222D02*
X17291134Y-12773984D01*
X17291134Y-12669222D02*
X17300658Y-12650174D01*
X17300658Y-12650174D02*
X17319705Y-12640650D01*
X17319705Y-12640650D02*
X17348277Y-12640650D01*
X17348277Y-12640650D02*
X17367325Y-12650174D01*
X17367325Y-12650174D02*
X17376848Y-12669222D01*
X17376848Y-12669222D02*
X17376848Y-12773984D01*
X17472086Y-12773984D02*
X17472086Y-12640650D01*
X17472086Y-12659698D02*
X17481610Y-12650174D01*
X17481610Y-12650174D02*
X17500658Y-12640650D01*
X17500658Y-12640650D02*
X17529229Y-12640650D01*
X17529229Y-12640650D02*
X17548277Y-12650174D01*
X17548277Y-12650174D02*
X17557801Y-12669222D01*
X17557801Y-12669222D02*
X17557801Y-12773984D01*
X17557801Y-12669222D02*
X17567325Y-12650174D01*
X17567325Y-12650174D02*
X17586372Y-12640650D01*
X17586372Y-12640650D02*
X17614944Y-12640650D01*
X17614944Y-12640650D02*
X17633991Y-12650174D01*
X17633991Y-12650174D02*
X17643515Y-12669222D01*
X17643515Y-12669222D02*
X17643515Y-12773984D01*
X18033991Y-12564460D02*
X17862563Y-12821603D01*
X18291134Y-12573984D02*
X18310182Y-12573984D01*
X18310182Y-12573984D02*
X18329229Y-12583508D01*
X18329229Y-12583508D02*
X18338753Y-12593031D01*
X18338753Y-12593031D02*
X18348277Y-12612079D01*
X18348277Y-12612079D02*
X18357801Y-12650174D01*
X18357801Y-12650174D02*
X18357801Y-12697793D01*
X18357801Y-12697793D02*
X18348277Y-12735888D01*
X18348277Y-12735888D02*
X18338753Y-12754936D01*
X18338753Y-12754936D02*
X18329229Y-12764460D01*
X18329229Y-12764460D02*
X18310182Y-12773984D01*
X18310182Y-12773984D02*
X18291134Y-12773984D01*
X18291134Y-12773984D02*
X18272087Y-12764460D01*
X18272087Y-12764460D02*
X18262563Y-12754936D01*
X18262563Y-12754936D02*
X18253039Y-12735888D01*
X18253039Y-12735888D02*
X18243515Y-12697793D01*
X18243515Y-12697793D02*
X18243515Y-12650174D01*
X18243515Y-12650174D02*
X18253039Y-12612079D01*
X18253039Y-12612079D02*
X18262563Y-12593031D01*
X18262563Y-12593031D02*
X18272087Y-12583508D01*
X18272087Y-12583508D02*
X18291134Y-12573984D01*
X18443515Y-12754936D02*
X18453039Y-12764460D01*
X18453039Y-12764460D02*
X18443515Y-12773984D01*
X18443515Y-12773984D02*
X18433991Y-12764460D01*
X18433991Y-12764460D02*
X18443515Y-12754936D01*
X18443515Y-12754936D02*
X18443515Y-12773984D01*
X18576848Y-12573984D02*
X18595896Y-12573984D01*
X18595896Y-12573984D02*
X18614944Y-12583508D01*
X18614944Y-12583508D02*
X18624468Y-12593031D01*
X18624468Y-12593031D02*
X18633991Y-12612079D01*
X18633991Y-12612079D02*
X18643515Y-12650174D01*
X18643515Y-12650174D02*
X18643515Y-12697793D01*
X18643515Y-12697793D02*
X18633991Y-12735888D01*
X18633991Y-12735888D02*
X18624468Y-12754936D01*
X18624468Y-12754936D02*
X18614944Y-12764460D01*
X18614944Y-12764460D02*
X18595896Y-12773984D01*
X18595896Y-12773984D02*
X18576848Y-12773984D01*
X18576848Y-12773984D02*
X18557801Y-12764460D01*
X18557801Y-12764460D02*
X18548277Y-12754936D01*
X18548277Y-12754936D02*
X18538753Y-12735888D01*
X18538753Y-12735888D02*
X18529229Y-12697793D01*
X18529229Y-12697793D02*
X18529229Y-12650174D01*
X18529229Y-12650174D02*
X18538753Y-12612079D01*
X18538753Y-12612079D02*
X18548277Y-12593031D01*
X18548277Y-12593031D02*
X18557801Y-12583508D01*
X18557801Y-12583508D02*
X18576848Y-12573984D01*
X18710182Y-12573984D02*
X18833991Y-12573984D01*
X18833991Y-12573984D02*
X18767325Y-12650174D01*
X18767325Y-12650174D02*
X18795896Y-12650174D01*
X18795896Y-12650174D02*
X18814944Y-12659698D01*
X18814944Y-12659698D02*
X18824468Y-12669222D01*
X18824468Y-12669222D02*
X18833991Y-12688269D01*
X18833991Y-12688269D02*
X18833991Y-12735888D01*
X18833991Y-12735888D02*
X18824468Y-12754936D01*
X18824468Y-12754936D02*
X18814944Y-12764460D01*
X18814944Y-12764460D02*
X18795896Y-12773984D01*
X18795896Y-12773984D02*
X18738753Y-12773984D01*
X18738753Y-12773984D02*
X18719706Y-12764460D01*
X18719706Y-12764460D02*
X18710182Y-12754936D01*
X19024468Y-12773984D02*
X18910182Y-12773984D01*
X18967325Y-12773984D02*
X18967325Y-12573984D01*
X18967325Y-12573984D02*
X18948277Y-12602555D01*
X18948277Y-12602555D02*
X18929229Y-12621603D01*
X18929229Y-12621603D02*
X18910182Y-12631127D01*
X19205420Y-12573984D02*
X19110182Y-12573984D01*
X19110182Y-12573984D02*
X19100658Y-12669222D01*
X19100658Y-12669222D02*
X19110182Y-12659698D01*
X19110182Y-12659698D02*
X19129229Y-12650174D01*
X19129229Y-12650174D02*
X19176849Y-12650174D01*
X19176849Y-12650174D02*
X19195896Y-12659698D01*
X19195896Y-12659698D02*
X19205420Y-12669222D01*
X19205420Y-12669222D02*
X19214944Y-12688269D01*
X19214944Y-12688269D02*
X19214944Y-12735888D01*
X19214944Y-12735888D02*
X19205420Y-12754936D01*
X19205420Y-12754936D02*
X19195896Y-12764460D01*
X19195896Y-12764460D02*
X19176849Y-12773984D01*
X19176849Y-12773984D02*
X19129229Y-12773984D01*
X19129229Y-12773984D02*
X19110182Y-12764460D01*
X19110182Y-12764460D02*
X19100658Y-12754936D01*
X19291134Y-12573984D02*
X19291134Y-12612079D01*
X19367325Y-12573984D02*
X19367325Y-12612079D01*
X19662563Y-12850174D02*
X19653039Y-12840650D01*
X19653039Y-12840650D02*
X19633991Y-12812079D01*
X19633991Y-12812079D02*
X19624468Y-12793031D01*
X19624468Y-12793031D02*
X19614944Y-12764460D01*
X19614944Y-12764460D02*
X19605420Y-12716841D01*
X19605420Y-12716841D02*
X19605420Y-12678746D01*
X19605420Y-12678746D02*
X19614944Y-12631127D01*
X19614944Y-12631127D02*
X19624468Y-12602555D01*
X19624468Y-12602555D02*
X19633991Y-12583508D01*
X19633991Y-12583508D02*
X19653039Y-12554936D01*
X19653039Y-12554936D02*
X19662563Y-12545412D01*
X19729230Y-12593031D02*
X19738753Y-12583508D01*
X19738753Y-12583508D02*
X19757801Y-12573984D01*
X19757801Y-12573984D02*
X19805420Y-12573984D01*
X19805420Y-12573984D02*
X19824468Y-12583508D01*
X19824468Y-12583508D02*
X19833991Y-12593031D01*
X19833991Y-12593031D02*
X19843515Y-12612079D01*
X19843515Y-12612079D02*
X19843515Y-12631127D01*
X19843515Y-12631127D02*
X19833991Y-12659698D01*
X19833991Y-12659698D02*
X19719706Y-12773984D01*
X19719706Y-12773984D02*
X19843515Y-12773984D01*
X20081611Y-12773984D02*
X20081611Y-12573984D01*
X20167325Y-12773984D02*
X20167325Y-12669222D01*
X20167325Y-12669222D02*
X20157801Y-12650174D01*
X20157801Y-12650174D02*
X20138753Y-12640650D01*
X20138753Y-12640650D02*
X20110182Y-12640650D01*
X20110182Y-12640650D02*
X20091134Y-12650174D01*
X20091134Y-12650174D02*
X20081611Y-12659698D01*
X20291134Y-12773984D02*
X20272087Y-12764460D01*
X20272087Y-12764460D02*
X20262563Y-12754936D01*
X20262563Y-12754936D02*
X20253039Y-12735888D01*
X20253039Y-12735888D02*
X20253039Y-12678746D01*
X20253039Y-12678746D02*
X20262563Y-12659698D01*
X20262563Y-12659698D02*
X20272087Y-12650174D01*
X20272087Y-12650174D02*
X20291134Y-12640650D01*
X20291134Y-12640650D02*
X20319706Y-12640650D01*
X20319706Y-12640650D02*
X20338753Y-12650174D01*
X20338753Y-12650174D02*
X20348277Y-12659698D01*
X20348277Y-12659698D02*
X20357801Y-12678746D01*
X20357801Y-12678746D02*
X20357801Y-12735888D01*
X20357801Y-12735888D02*
X20348277Y-12754936D01*
X20348277Y-12754936D02*
X20338753Y-12764460D01*
X20338753Y-12764460D02*
X20319706Y-12773984D01*
X20319706Y-12773984D02*
X20291134Y-12773984D01*
X20472087Y-12773984D02*
X20453039Y-12764460D01*
X20453039Y-12764460D02*
X20443515Y-12745412D01*
X20443515Y-12745412D02*
X20443515Y-12573984D01*
X20624468Y-12764460D02*
X20605420Y-12773984D01*
X20605420Y-12773984D02*
X20567325Y-12773984D01*
X20567325Y-12773984D02*
X20548277Y-12764460D01*
X20548277Y-12764460D02*
X20538753Y-12745412D01*
X20538753Y-12745412D02*
X20538753Y-12669222D01*
X20538753Y-12669222D02*
X20548277Y-12650174D01*
X20548277Y-12650174D02*
X20567325Y-12640650D01*
X20567325Y-12640650D02*
X20605420Y-12640650D01*
X20605420Y-12640650D02*
X20624468Y-12650174D01*
X20624468Y-12650174D02*
X20633992Y-12669222D01*
X20633992Y-12669222D02*
X20633992Y-12688269D01*
X20633992Y-12688269D02*
X20538753Y-12707317D01*
X20710182Y-12764460D02*
X20729230Y-12773984D01*
X20729230Y-12773984D02*
X20767325Y-12773984D01*
X20767325Y-12773984D02*
X20786373Y-12764460D01*
X20786373Y-12764460D02*
X20795896Y-12745412D01*
X20795896Y-12745412D02*
X20795896Y-12735888D01*
X20795896Y-12735888D02*
X20786373Y-12716841D01*
X20786373Y-12716841D02*
X20767325Y-12707317D01*
X20767325Y-12707317D02*
X20738753Y-12707317D01*
X20738753Y-12707317D02*
X20719706Y-12697793D01*
X20719706Y-12697793D02*
X20710182Y-12678746D01*
X20710182Y-12678746D02*
X20710182Y-12669222D01*
X20710182Y-12669222D02*
X20719706Y-12650174D01*
X20719706Y-12650174D02*
X20738753Y-12640650D01*
X20738753Y-12640650D02*
X20767325Y-12640650D01*
X20767325Y-12640650D02*
X20786373Y-12650174D01*
X20862563Y-12850174D02*
X20872087Y-12840650D01*
X20872087Y-12840650D02*
X20891134Y-12812079D01*
X20891134Y-12812079D02*
X20900658Y-12793031D01*
X20900658Y-12793031D02*
X20910182Y-12764460D01*
X20910182Y-12764460D02*
X20919706Y-12716841D01*
X20919706Y-12716841D02*
X20919706Y-12678746D01*
X20919706Y-12678746D02*
X20910182Y-12631127D01*
X20910182Y-12631127D02*
X20900658Y-12602555D01*
X20900658Y-12602555D02*
X20891134Y-12583508D01*
X20891134Y-12583508D02*
X20872087Y-12554936D01*
X20872087Y-12554936D02*
X20862563Y-12545412D01*
D12*
X16087500Y-12946500D02*
G75*
G02*
X15987500Y-12946500I-50000J0D01*
G01*
X15987500Y-12946500D02*
G75*
G02*
X16087500Y-12946500I50000J0D01*
G01*
D11*
X16453039Y-13037984D02*
X16338753Y-13037984D01*
X16395896Y-13037984D02*
X16395896Y-12837984D01*
X16395896Y-12837984D02*
X16376848Y-12866555D01*
X16376848Y-12866555D02*
X16357801Y-12885603D01*
X16357801Y-12885603D02*
X16338753Y-12895127D01*
X16538753Y-13018936D02*
X16548277Y-13028460D01*
X16548277Y-13028460D02*
X16538753Y-13037984D01*
X16538753Y-13037984D02*
X16529229Y-13028460D01*
X16529229Y-13028460D02*
X16538753Y-13018936D01*
X16538753Y-13018936D02*
X16538753Y-13037984D01*
X16672086Y-12837984D02*
X16691134Y-12837984D01*
X16691134Y-12837984D02*
X16710182Y-12847508D01*
X16710182Y-12847508D02*
X16719705Y-12857031D01*
X16719705Y-12857031D02*
X16729229Y-12876079D01*
X16729229Y-12876079D02*
X16738753Y-12914174D01*
X16738753Y-12914174D02*
X16738753Y-12961793D01*
X16738753Y-12961793D02*
X16729229Y-12999888D01*
X16729229Y-12999888D02*
X16719705Y-13018936D01*
X16719705Y-13018936D02*
X16710182Y-13028460D01*
X16710182Y-13028460D02*
X16691134Y-13037984D01*
X16691134Y-13037984D02*
X16672086Y-13037984D01*
X16672086Y-13037984D02*
X16653039Y-13028460D01*
X16653039Y-13028460D02*
X16643515Y-13018936D01*
X16643515Y-13018936D02*
X16633991Y-12999888D01*
X16633991Y-12999888D02*
X16624467Y-12961793D01*
X16624467Y-12961793D02*
X16624467Y-12914174D01*
X16624467Y-12914174D02*
X16633991Y-12876079D01*
X16633991Y-12876079D02*
X16643515Y-12857031D01*
X16643515Y-12857031D02*
X16653039Y-12847508D01*
X16653039Y-12847508D02*
X16672086Y-12837984D01*
X16862563Y-12837984D02*
X16881610Y-12837984D01*
X16881610Y-12837984D02*
X16900658Y-12847508D01*
X16900658Y-12847508D02*
X16910182Y-12857031D01*
X16910182Y-12857031D02*
X16919705Y-12876079D01*
X16919705Y-12876079D02*
X16929229Y-12914174D01*
X16929229Y-12914174D02*
X16929229Y-12961793D01*
X16929229Y-12961793D02*
X16919705Y-12999888D01*
X16919705Y-12999888D02*
X16910182Y-13018936D01*
X16910182Y-13018936D02*
X16900658Y-13028460D01*
X16900658Y-13028460D02*
X16881610Y-13037984D01*
X16881610Y-13037984D02*
X16862563Y-13037984D01*
X16862563Y-13037984D02*
X16843515Y-13028460D01*
X16843515Y-13028460D02*
X16833991Y-13018936D01*
X16833991Y-13018936D02*
X16824467Y-12999888D01*
X16824467Y-12999888D02*
X16814944Y-12961793D01*
X16814944Y-12961793D02*
X16814944Y-12914174D01*
X16814944Y-12914174D02*
X16824467Y-12876079D01*
X16824467Y-12876079D02*
X16833991Y-12857031D01*
X16833991Y-12857031D02*
X16843515Y-12847508D01*
X16843515Y-12847508D02*
X16862563Y-12837984D01*
X17053039Y-12837984D02*
X17072086Y-12837984D01*
X17072086Y-12837984D02*
X17091134Y-12847508D01*
X17091134Y-12847508D02*
X17100658Y-12857031D01*
X17100658Y-12857031D02*
X17110182Y-12876079D01*
X17110182Y-12876079D02*
X17119705Y-12914174D01*
X17119705Y-12914174D02*
X17119705Y-12961793D01*
X17119705Y-12961793D02*
X17110182Y-12999888D01*
X17110182Y-12999888D02*
X17100658Y-13018936D01*
X17100658Y-13018936D02*
X17091134Y-13028460D01*
X17091134Y-13028460D02*
X17072086Y-13037984D01*
X17072086Y-13037984D02*
X17053039Y-13037984D01*
X17053039Y-13037984D02*
X17033991Y-13028460D01*
X17033991Y-13028460D02*
X17024467Y-13018936D01*
X17024467Y-13018936D02*
X17014944Y-12999888D01*
X17014944Y-12999888D02*
X17005420Y-12961793D01*
X17005420Y-12961793D02*
X17005420Y-12914174D01*
X17005420Y-12914174D02*
X17014944Y-12876079D01*
X17014944Y-12876079D02*
X17024467Y-12857031D01*
X17024467Y-12857031D02*
X17033991Y-12847508D01*
X17033991Y-12847508D02*
X17053039Y-12837984D01*
X17205420Y-13037984D02*
X17205420Y-12904650D01*
X17205420Y-12923698D02*
X17214944Y-12914174D01*
X17214944Y-12914174D02*
X17233991Y-12904650D01*
X17233991Y-12904650D02*
X17262563Y-12904650D01*
X17262563Y-12904650D02*
X17281610Y-12914174D01*
X17281610Y-12914174D02*
X17291134Y-12933222D01*
X17291134Y-12933222D02*
X17291134Y-13037984D01*
X17291134Y-12933222D02*
X17300658Y-12914174D01*
X17300658Y-12914174D02*
X17319705Y-12904650D01*
X17319705Y-12904650D02*
X17348277Y-12904650D01*
X17348277Y-12904650D02*
X17367325Y-12914174D01*
X17367325Y-12914174D02*
X17376848Y-12933222D01*
X17376848Y-12933222D02*
X17376848Y-13037984D01*
X17472086Y-13037984D02*
X17472086Y-12904650D01*
X17472086Y-12923698D02*
X17481610Y-12914174D01*
X17481610Y-12914174D02*
X17500658Y-12904650D01*
X17500658Y-12904650D02*
X17529229Y-12904650D01*
X17529229Y-12904650D02*
X17548277Y-12914174D01*
X17548277Y-12914174D02*
X17557801Y-12933222D01*
X17557801Y-12933222D02*
X17557801Y-13037984D01*
X17557801Y-12933222D02*
X17567325Y-12914174D01*
X17567325Y-12914174D02*
X17586372Y-12904650D01*
X17586372Y-12904650D02*
X17614944Y-12904650D01*
X17614944Y-12904650D02*
X17633991Y-12914174D01*
X17633991Y-12914174D02*
X17643515Y-12933222D01*
X17643515Y-12933222D02*
X17643515Y-13037984D01*
X18033991Y-12828460D02*
X17862563Y-13085603D01*
X18291134Y-12837984D02*
X18310182Y-12837984D01*
X18310182Y-12837984D02*
X18329229Y-12847508D01*
X18329229Y-12847508D02*
X18338753Y-12857031D01*
X18338753Y-12857031D02*
X18348277Y-12876079D01*
X18348277Y-12876079D02*
X18357801Y-12914174D01*
X18357801Y-12914174D02*
X18357801Y-12961793D01*
X18357801Y-12961793D02*
X18348277Y-12999888D01*
X18348277Y-12999888D02*
X18338753Y-13018936D01*
X18338753Y-13018936D02*
X18329229Y-13028460D01*
X18329229Y-13028460D02*
X18310182Y-13037984D01*
X18310182Y-13037984D02*
X18291134Y-13037984D01*
X18291134Y-13037984D02*
X18272087Y-13028460D01*
X18272087Y-13028460D02*
X18262563Y-13018936D01*
X18262563Y-13018936D02*
X18253039Y-12999888D01*
X18253039Y-12999888D02*
X18243515Y-12961793D01*
X18243515Y-12961793D02*
X18243515Y-12914174D01*
X18243515Y-12914174D02*
X18253039Y-12876079D01*
X18253039Y-12876079D02*
X18262563Y-12857031D01*
X18262563Y-12857031D02*
X18272087Y-12847508D01*
X18272087Y-12847508D02*
X18291134Y-12837984D01*
X18443515Y-13018936D02*
X18453039Y-13028460D01*
X18453039Y-13028460D02*
X18443515Y-13037984D01*
X18443515Y-13037984D02*
X18433991Y-13028460D01*
X18433991Y-13028460D02*
X18443515Y-13018936D01*
X18443515Y-13018936D02*
X18443515Y-13037984D01*
X18576848Y-12837984D02*
X18595896Y-12837984D01*
X18595896Y-12837984D02*
X18614944Y-12847508D01*
X18614944Y-12847508D02*
X18624468Y-12857031D01*
X18624468Y-12857031D02*
X18633991Y-12876079D01*
X18633991Y-12876079D02*
X18643515Y-12914174D01*
X18643515Y-12914174D02*
X18643515Y-12961793D01*
X18643515Y-12961793D02*
X18633991Y-12999888D01*
X18633991Y-12999888D02*
X18624468Y-13018936D01*
X18624468Y-13018936D02*
X18614944Y-13028460D01*
X18614944Y-13028460D02*
X18595896Y-13037984D01*
X18595896Y-13037984D02*
X18576848Y-13037984D01*
X18576848Y-13037984D02*
X18557801Y-13028460D01*
X18557801Y-13028460D02*
X18548277Y-13018936D01*
X18548277Y-13018936D02*
X18538753Y-12999888D01*
X18538753Y-12999888D02*
X18529229Y-12961793D01*
X18529229Y-12961793D02*
X18529229Y-12914174D01*
X18529229Y-12914174D02*
X18538753Y-12876079D01*
X18538753Y-12876079D02*
X18548277Y-12857031D01*
X18548277Y-12857031D02*
X18557801Y-12847508D01*
X18557801Y-12847508D02*
X18576848Y-12837984D01*
X18710182Y-12837984D02*
X18833991Y-12837984D01*
X18833991Y-12837984D02*
X18767325Y-12914174D01*
X18767325Y-12914174D02*
X18795896Y-12914174D01*
X18795896Y-12914174D02*
X18814944Y-12923698D01*
X18814944Y-12923698D02*
X18824468Y-12933222D01*
X18824468Y-12933222D02*
X18833991Y-12952269D01*
X18833991Y-12952269D02*
X18833991Y-12999888D01*
X18833991Y-12999888D02*
X18824468Y-13018936D01*
X18824468Y-13018936D02*
X18814944Y-13028460D01*
X18814944Y-13028460D02*
X18795896Y-13037984D01*
X18795896Y-13037984D02*
X18738753Y-13037984D01*
X18738753Y-13037984D02*
X18719706Y-13028460D01*
X18719706Y-13028460D02*
X18710182Y-13018936D01*
X18929229Y-13037984D02*
X18967325Y-13037984D01*
X18967325Y-13037984D02*
X18986372Y-13028460D01*
X18986372Y-13028460D02*
X18995896Y-13018936D01*
X18995896Y-13018936D02*
X19014944Y-12990365D01*
X19014944Y-12990365D02*
X19024468Y-12952269D01*
X19024468Y-12952269D02*
X19024468Y-12876079D01*
X19024468Y-12876079D02*
X19014944Y-12857031D01*
X19014944Y-12857031D02*
X19005420Y-12847508D01*
X19005420Y-12847508D02*
X18986372Y-12837984D01*
X18986372Y-12837984D02*
X18948277Y-12837984D01*
X18948277Y-12837984D02*
X18929229Y-12847508D01*
X18929229Y-12847508D02*
X18919706Y-12857031D01*
X18919706Y-12857031D02*
X18910182Y-12876079D01*
X18910182Y-12876079D02*
X18910182Y-12923698D01*
X18910182Y-12923698D02*
X18919706Y-12942746D01*
X18919706Y-12942746D02*
X18929229Y-12952269D01*
X18929229Y-12952269D02*
X18948277Y-12961793D01*
X18948277Y-12961793D02*
X18986372Y-12961793D01*
X18986372Y-12961793D02*
X19005420Y-12952269D01*
X19005420Y-12952269D02*
X19014944Y-12942746D01*
X19014944Y-12942746D02*
X19024468Y-12923698D01*
X19195896Y-12904650D02*
X19195896Y-13037984D01*
X19148277Y-12828460D02*
X19100658Y-12971317D01*
X19100658Y-12971317D02*
X19224468Y-12971317D01*
X19291134Y-12837984D02*
X19291134Y-12876079D01*
X19367325Y-12837984D02*
X19367325Y-12876079D01*
X19662563Y-13114174D02*
X19653039Y-13104650D01*
X19653039Y-13104650D02*
X19633991Y-13076079D01*
X19633991Y-13076079D02*
X19624468Y-13057031D01*
X19624468Y-13057031D02*
X19614944Y-13028460D01*
X19614944Y-13028460D02*
X19605420Y-12980841D01*
X19605420Y-12980841D02*
X19605420Y-12942746D01*
X19605420Y-12942746D02*
X19614944Y-12895127D01*
X19614944Y-12895127D02*
X19624468Y-12866555D01*
X19624468Y-12866555D02*
X19633991Y-12847508D01*
X19633991Y-12847508D02*
X19653039Y-12818936D01*
X19653039Y-12818936D02*
X19662563Y-12809412D01*
X19729230Y-12857031D02*
X19738753Y-12847508D01*
X19738753Y-12847508D02*
X19757801Y-12837984D01*
X19757801Y-12837984D02*
X19805420Y-12837984D01*
X19805420Y-12837984D02*
X19824468Y-12847508D01*
X19824468Y-12847508D02*
X19833991Y-12857031D01*
X19833991Y-12857031D02*
X19843515Y-12876079D01*
X19843515Y-12876079D02*
X19843515Y-12895127D01*
X19843515Y-12895127D02*
X19833991Y-12923698D01*
X19833991Y-12923698D02*
X19719706Y-13037984D01*
X19719706Y-13037984D02*
X19843515Y-13037984D01*
X20081611Y-13037984D02*
X20081611Y-12837984D01*
X20167325Y-13037984D02*
X20167325Y-12933222D01*
X20167325Y-12933222D02*
X20157801Y-12914174D01*
X20157801Y-12914174D02*
X20138753Y-12904650D01*
X20138753Y-12904650D02*
X20110182Y-12904650D01*
X20110182Y-12904650D02*
X20091134Y-12914174D01*
X20091134Y-12914174D02*
X20081611Y-12923698D01*
X20291134Y-13037984D02*
X20272087Y-13028460D01*
X20272087Y-13028460D02*
X20262563Y-13018936D01*
X20262563Y-13018936D02*
X20253039Y-12999888D01*
X20253039Y-12999888D02*
X20253039Y-12942746D01*
X20253039Y-12942746D02*
X20262563Y-12923698D01*
X20262563Y-12923698D02*
X20272087Y-12914174D01*
X20272087Y-12914174D02*
X20291134Y-12904650D01*
X20291134Y-12904650D02*
X20319706Y-12904650D01*
X20319706Y-12904650D02*
X20338753Y-12914174D01*
X20338753Y-12914174D02*
X20348277Y-12923698D01*
X20348277Y-12923698D02*
X20357801Y-12942746D01*
X20357801Y-12942746D02*
X20357801Y-12999888D01*
X20357801Y-12999888D02*
X20348277Y-13018936D01*
X20348277Y-13018936D02*
X20338753Y-13028460D01*
X20338753Y-13028460D02*
X20319706Y-13037984D01*
X20319706Y-13037984D02*
X20291134Y-13037984D01*
X20472087Y-13037984D02*
X20453039Y-13028460D01*
X20453039Y-13028460D02*
X20443515Y-13009412D01*
X20443515Y-13009412D02*
X20443515Y-12837984D01*
X20624468Y-13028460D02*
X20605420Y-13037984D01*
X20605420Y-13037984D02*
X20567325Y-13037984D01*
X20567325Y-13037984D02*
X20548277Y-13028460D01*
X20548277Y-13028460D02*
X20538753Y-13009412D01*
X20538753Y-13009412D02*
X20538753Y-12933222D01*
X20538753Y-12933222D02*
X20548277Y-12914174D01*
X20548277Y-12914174D02*
X20567325Y-12904650D01*
X20567325Y-12904650D02*
X20605420Y-12904650D01*
X20605420Y-12904650D02*
X20624468Y-12914174D01*
X20624468Y-12914174D02*
X20633992Y-12933222D01*
X20633992Y-12933222D02*
X20633992Y-12952269D01*
X20633992Y-12952269D02*
X20538753Y-12971317D01*
X20710182Y-13028460D02*
X20729230Y-13037984D01*
X20729230Y-13037984D02*
X20767325Y-13037984D01*
X20767325Y-13037984D02*
X20786373Y-13028460D01*
X20786373Y-13028460D02*
X20795896Y-13009412D01*
X20795896Y-13009412D02*
X20795896Y-12999888D01*
X20795896Y-12999888D02*
X20786373Y-12980841D01*
X20786373Y-12980841D02*
X20767325Y-12971317D01*
X20767325Y-12971317D02*
X20738753Y-12971317D01*
X20738753Y-12971317D02*
X20719706Y-12961793D01*
X20719706Y-12961793D02*
X20710182Y-12942746D01*
X20710182Y-12942746D02*
X20710182Y-12933222D01*
X20710182Y-12933222D02*
X20719706Y-12914174D01*
X20719706Y-12914174D02*
X20738753Y-12904650D01*
X20738753Y-12904650D02*
X20767325Y-12904650D01*
X20767325Y-12904650D02*
X20786373Y-12914174D01*
X20862563Y-13114174D02*
X20872087Y-13104650D01*
X20872087Y-13104650D02*
X20891134Y-13076079D01*
X20891134Y-13076079D02*
X20900658Y-13057031D01*
X20900658Y-13057031D02*
X20910182Y-13028460D01*
X20910182Y-13028460D02*
X20919706Y-12980841D01*
X20919706Y-12980841D02*
X20919706Y-12942746D01*
X20919706Y-12942746D02*
X20910182Y-12895127D01*
X20910182Y-12895127D02*
X20900658Y-12866555D01*
X20900658Y-12866555D02*
X20891134Y-12847508D01*
X20891134Y-12847508D02*
X20872087Y-12818936D01*
X20872087Y-12818936D02*
X20862563Y-12809412D01*
M02*
